<svg width="200" height="200" viewBox="0 0 200 200" fill="none" xmlns="http://www.w3.org/2000/svg">
<path fill-rule="evenodd" clip-rule="evenodd" d="M45.5833 45.5833C46.7552 44.4129 48.3437 43.7555 50 43.7555C51.6562 43.7555 53.2448 44.4129 54.4167 45.5833L100 91.1667L145.583 45.5833C146.156 44.9693 146.846 44.4768 147.612 44.1352C148.379 43.7936 149.206 43.6099 150.046 43.5951C150.885 43.5803 151.718 43.7346 152.497 44.049C153.275 44.3633 153.982 44.8312 154.575 45.4247C155.169 46.0182 155.637 46.7251 155.951 47.5034C156.265 48.2816 156.42 49.1152 156.405 49.9544C156.39 50.7935 156.206 51.6212 155.865 52.3878C155.523 53.1545 155.031 53.8445 154.417 54.4167L108.833 100L154.417 145.583C155.031 146.156 155.523 146.846 155.865 147.612C156.206 148.379 156.39 149.206 156.405 150.046C156.42 150.885 156.265 151.718 155.951 152.497C155.637 153.275 155.169 153.982 154.575 154.575C153.982 155.169 153.275 155.637 152.497 155.951C151.718 156.265 150.885 156.42 150.046 156.405C149.206 156.39 148.379 156.206 147.612 155.865C146.846 155.523 146.156 155.031 145.583 154.417L100 108.833L54.4167 154.417C53.2319 155.521 51.6648 156.122 50.0456 156.093C48.4265 156.065 46.8816 155.409 45.7365 154.264C44.5914 153.118 43.9354 151.574 43.9069 149.954C43.8783 148.335 44.4793 146.768 45.5833 145.583L91.1667 100L45.5833 54.4167C44.4129 53.2448 43.7555 51.6563 43.7555 50C43.7555 48.3437 44.4129 46.7552 45.5833 45.5833Z" fill="#C61919"/>
</svg>
