<svg width="24" height="24" viewBox="0 0 24 24" fill="none" xmlns="http://www.w3.org/2000/svg">
<path fill-rule="evenodd" clip-rule="evenodd" d="M4.72001 3.97001C4.86064 3.82956 5.05126 3.75067 5.25001 3.75067C5.44876 3.75067 5.63939 3.82956 5.78001 3.97001L13.28 11.47C13.4205 11.6106 13.4994 11.8013 13.4994 12C13.4994 12.1988 13.4205 12.3894 13.28 12.53L5.78001 20.03C5.63784 20.1625 5.44979 20.2346 5.25549 20.2312C5.06119 20.2278 4.8758 20.149 4.73839 20.0116C4.60098 19.8742 4.52226 19.6888 4.51884 19.4945C4.51541 19.3002 4.58753 19.1122 4.72001 18.97L11.69 12L4.72001 5.03001C4.57956 4.88939 4.50067 4.69876 4.50067 4.50001C4.50067 4.30126 4.57956 4.11064 4.72001 3.97001ZM10.72 3.97001C10.8606 3.82956 11.0513 3.75067 11.25 3.75067C11.4488 3.75067 11.6394 3.82956 11.78 3.97001L19.28 11.47C19.4205 11.6106 19.4994 11.8013 19.4994 12C19.4994 12.1988 19.4205 12.3894 19.28 12.53L11.78 20.03C11.7113 20.1037 11.6285 20.1628 11.5365 20.2038C11.4446 20.2448 11.3452 20.2668 11.2445 20.2686C11.1438 20.2704 11.0438 20.2519 10.9504 20.2141C10.857 20.1764 10.7722 20.1203 10.701 20.049C10.6298 19.9778 10.5736 19.893 10.5359 19.7996C10.4982 19.7062 10.4796 19.6062 10.4814 19.5055C10.4832 19.4048 10.5052 19.3055 10.5462 19.2135C10.5872 19.1215 10.6463 19.0387 10.72 18.97L17.69 12L10.72 5.03001C10.5796 4.88939 10.5007 4.69876 10.5007 4.50001C10.5007 4.30126 10.5796 4.11064 10.72 3.97001Z" fill="black"/>
</svg>
