<svg width="35" height="35" viewBox="0 0 35 35" fill="none" xmlns="http://www.w3.org/2000/svg">
<path fill-rule="evenodd" clip-rule="evenodd" d="M10.9377 8.75C10.9377 7.00952 11.6291 5.34032 12.8598 4.10961C14.0905 2.8789 15.7597 2.1875 17.5002 2.1875C19.2407 2.1875 20.9099 2.8789 22.1406 4.10961C23.3713 5.34032 24.0627 7.00952 24.0627 8.75C24.0627 10.4905 23.3713 12.1597 22.1406 13.3904C20.9099 14.6211 19.2407 15.3125 17.5002 15.3125C15.7597 15.3125 14.0905 14.6211 12.8598 13.3904C11.6291 12.1597 10.9377 10.4905 10.9377 8.75ZM5.47039 29.3198C5.51956 26.1617 6.80862 23.1497 9.05929 20.9338C11.31 18.7179 14.3417 17.4759 17.5002 17.4759C20.6586 17.4759 23.6904 18.7179 25.9411 20.9338C28.1917 23.1497 29.4808 26.1617 29.53 29.3198C29.5338 29.5324 29.4755 29.7415 29.3623 29.9215C29.2491 30.1015 29.0859 30.2446 28.8927 30.3333C25.3186 31.9721 21.4321 32.8178 17.5002 32.8125C13.4373 32.8125 9.57706 31.9258 6.10768 30.3333C5.91443 30.2446 5.75123 30.1015 5.63804 29.9215C5.52486 29.7415 5.4666 29.5324 5.47039 29.3198Z" fill="black"/>
</svg>
