<svg width="30" height="30" viewBox="0 0 30 30" fill="none" xmlns="http://www.w3.org/2000/svg">
<path fill-rule="evenodd" clip-rule="evenodd" d="M13.125 4.68751C12.017 4.68751 10.9198 4.90576 9.89611 5.32978C8.87242 5.7538 7.94228 6.37531 7.15879 7.1588C6.37529 7.94229 5.75379 8.87244 5.32977 9.89612C4.90574 10.9198 4.6875 12.017 4.6875 13.125C4.6875 14.233 4.90574 15.3302 5.32977 16.3539C5.75379 17.3776 6.37529 18.3077 7.15879 19.0912C7.94228 19.8747 8.87242 20.4962 9.89611 20.9202C10.9198 21.3443 12.017 21.5625 13.125 21.5625C15.3628 21.5625 17.5089 20.6736 19.0912 19.0912C20.6736 17.5089 21.5625 15.3628 21.5625 13.125C21.5625 10.8873 20.6736 8.74114 19.0912 7.1588C17.5089 5.57646 15.3628 4.68751 13.125 4.68751ZM2.8125 13.125C2.81272 11.4689 3.2118 9.83717 3.97599 8.36789C4.74017 6.89861 5.84698 5.63499 7.2028 4.68391C8.55861 3.73284 10.1235 3.12229 11.7652 2.90392C13.4069 2.68554 15.077 2.86576 16.6343 3.42933C18.1916 3.9929 19.5902 4.92325 20.7119 6.14166C21.8336 7.36008 22.6454 8.83073 23.0785 10.4292C23.5117 12.0277 23.5535 13.707 23.2004 15.325C22.8473 16.9431 22.1097 18.4523 21.05 19.725L26.9125 25.5875C27.0046 25.6733 27.0785 25.7768 27.1297 25.8918C27.181 26.0068 27.2085 26.131 27.2107 26.2569C27.213 26.3827 27.1898 26.5078 27.1427 26.6245C27.0955 26.7412 27.0253 26.8473 26.9363 26.9363C26.8473 27.0253 26.7412 27.0955 26.6245 27.1427C26.5078 27.1898 26.3827 27.213 26.2568 27.2108C26.131 27.2085 26.0068 27.181 25.8918 27.1297C25.7768 27.0785 25.6733 27.0046 25.5875 26.9125L19.725 21.05C18.219 22.3044 16.3868 23.1036 14.4429 23.3541C12.499 23.6046 10.524 23.2959 8.74926 22.4643C6.9745 21.6326 5.47348 20.3125 4.42204 18.6584C3.3706 17.0044 2.81228 15.085 2.8125 13.125Z" fill="black"/>
</svg>
