<svg width="35" height="35" viewBox="0 0 35 35" fill="none" xmlns="http://www.w3.org/2000/svg">
<path fill-rule="evenodd" clip-rule="evenodd" d="M6.88335 5.7896C7.08843 5.58477 7.36642 5.46973 7.65626 5.46973C7.94611 5.46973 8.2241 5.58477 8.42918 5.7896L19.3667 16.7271C19.5715 16.9322 19.6866 17.2102 19.6866 17.5C19.6866 17.7899 19.5715 18.0679 19.3667 18.2729L8.42918 29.2104C8.22184 29.4036 7.94761 29.5088 7.66425 29.5038C7.3809 29.4988 7.11054 29.384 6.91015 29.1836C6.70975 28.9832 6.59497 28.7129 6.58997 28.4295C6.58497 28.1462 6.69015 27.8719 6.88335 27.6646L17.0479 17.5L6.88335 7.33543C6.67852 7.13035 6.56348 6.85236 6.56348 6.56251C6.56348 6.27267 6.67852 5.99468 6.88335 5.7896ZM15.6333 5.7896C15.8384 5.58477 16.1164 5.46973 16.4063 5.46973C16.6961 5.46973 16.9741 5.58477 17.1792 5.7896L28.1167 16.7271C28.3215 16.9322 28.4366 17.2102 28.4366 17.5C28.4366 17.7899 28.3215 18.0679 28.1167 18.2729L17.1792 29.2104C17.079 29.3179 16.9583 29.4041 16.8241 29.4639C16.69 29.5236 16.5451 29.5558 16.3983 29.5584C16.2514 29.561 16.1055 29.534 15.9694 29.4789C15.8332 29.4239 15.7094 29.3421 15.6056 29.2382C15.5017 29.1343 15.4198 29.0106 15.3648 28.8744C15.3098 28.7382 15.2828 28.5924 15.2854 28.4455C15.288 28.2986 15.3201 28.1538 15.3799 28.0196C15.4397 27.8855 15.5259 27.7647 15.6333 27.6646L25.7979 17.5L15.6333 7.33543C15.4285 7.13035 15.3135 6.85236 15.3135 6.56251C15.3135 6.27267 15.4285 5.99468 15.6333 5.7896Z" fill="#6AADFF"/>
</svg>
