<svg width="24" height="24" viewBox="0 0 24 24" fill="none" xmlns="http://www.w3.org/2000/svg">
<path d="M19.2 21L12.925 14.725L14.35 13.3L20.625 19.575L19.2 21ZM4.675 21L3.25 19.575L10.5 12.325L7.825 9.64998L7.25 10.225L6.15 9.12498V11.25L5.55 11.85L2.5 8.79998L3.1 8.19998H5.25L4.05 6.99998L7.325 3.72498C7.60833 3.44164 7.91667 3.24998 8.25 3.14998C8.58333 3.04998 8.95 2.99998 9.35 2.99998C9.75 2.99998 10.1167 3.07081 10.45 3.21248C10.7833 3.35414 11.0917 3.56664 11.375 3.84998L8.7 6.52498L9.9 7.72498L9.3 8.32498L11.9 10.925L14.95 7.87498C14.8167 7.65831 14.7125 7.40831 14.6375 7.12498C14.5625 6.84164 14.525 6.54164 14.525 6.22498C14.525 5.34164 14.8458 4.57914 15.4875 3.93748C16.1292 3.29581 16.8917 2.97498 17.775 2.97498C18.025 2.97498 18.2375 2.99998 18.4125 3.04998C18.5875 3.09998 18.7333 3.16664 18.85 3.24998L16.725 5.37498L18.6 7.24998L20.725 5.12498C20.8083 5.25831 20.8792 5.42081 20.9375 5.61248C20.9958 5.80414 21.025 6.02498 21.025 6.27498C21.025 7.15831 20.7042 7.92081 20.0625 8.56248C19.4208 9.20414 18.6583 9.52498 17.775 9.52498C17.475 9.52498 17.2167 9.50414 17 9.46248C16.7833 9.42081 16.5833 9.35831 16.4 9.27498L4.675 21Z" fill="#6AADFF"/>
</svg>
