<svg width="30" height="30" viewBox="0 0 30 30" fill="none" xmlns="http://www.w3.org/2000/svg">
<path d="M6.125 19.6562C5.70833 18.9062 5.41667 18.151 5.25 17.3906C5.08333 16.6302 5 15.8542 5 15.0625C5 12.3333 5.98438 9.98438 7.95313 8.01562C9.92188 6.04687 12.2708 5.0625 15 5.0625H16.3438L13.8438 2.5625L15.0625 1.34375L19.7188 6L15.0625 10.6562L13.8125 9.40625L16.2812 6.9375H15C12.7708 6.9375 10.8594 7.73438 9.26562 9.32812C7.67188 10.9219 6.875 12.8333 6.875 15.0625C6.875 15.6667 6.93229 16.2396 7.04687 16.7812C7.16146 17.3229 7.30208 17.8333 7.46875 18.3125L6.125 19.6562ZM14.875 28.75L10.2188 24.0937L14.875 19.4375L16.0938 20.6562L13.5938 23.1562H15C17.2292 23.1562 19.1406 22.3594 20.7344 20.7656C22.3281 19.1719 23.125 17.2604 23.125 15.0312C23.125 14.4271 23.0729 13.8542 22.9688 13.3125C22.8646 12.7708 22.7083 12.2604 22.5 11.7812L23.8438 10.4375C24.2604 11.1875 24.5573 11.9427 24.7344 12.7031C24.9115 13.4635 25 14.2396 25 15.0312C25 17.7604 24.0156 20.1094 22.0469 22.0781C20.0781 24.0469 17.7292 25.0312 15 25.0312H13.5938L16.0938 27.5312L14.875 28.75Z" fill="black"/>
</svg>
