<svg width="200" height="200" viewBox="0 0 200 200" fill="none" xmlns="http://www.w3.org/2000/svg">
<path d="M40.8333 131.042C38.0556 126.042 36.1111 121.007 35 115.938C33.8889 110.868 33.3333 105.694 33.3333 100.417C33.3333 82.2223 39.8958 66.5625 53.0208 53.4375C66.1458 40.3125 81.8055 33.75 100 33.75H108.958L92.2917 17.0834L100.417 8.95837L131.458 40L100.417 71.0417L92.0833 62.7084L108.542 46.25H100C85.1389 46.25 72.3958 51.5625 61.7708 62.1875C51.1458 72.8125 45.8333 85.5556 45.8333 100.417C45.8333 104.444 46.2153 108.264 46.9792 111.875C47.743 115.486 48.6805 118.889 49.7917 122.083L40.8333 131.042ZM99.1667 191.667L68.125 160.625L99.1667 129.583L107.292 137.708L90.625 154.375H100C114.861 154.375 127.604 149.063 138.229 138.438C148.854 127.813 154.167 115.069 154.167 100.208C154.167 96.1806 153.819 92.3611 153.125 88.75C152.431 85.1389 151.389 81.7362 150 78.5417L158.958 69.5834C161.736 74.5834 163.715 79.6181 164.896 84.6875C166.076 89.757 166.667 94.9306 166.667 100.208C166.667 118.403 160.104 134.063 146.979 147.188C133.854 160.313 118.194 166.875 100 166.875H90.625L107.292 183.542L99.1667 191.667Z" fill="#6AADFF"/>
</svg>
