<svg width="60" height="60" viewBox="0 0 60 60" fill="none" xmlns="http://www.w3.org/2000/svg">
<path d="M14.0625 4.25H22.5C24.8538 4.25 27.1112 5.18504 28.7756 6.84943C30.44 8.51381 31.375 10.7712 31.375 13.125V17.8125C31.375 20.6788 33.699 23 36.5625 23H41.25C43.6038 23 45.8612 23.935 47.5256 25.5994C49.19 27.2638 50.125 29.5212 50.125 31.875V51.5625C50.125 53.8739 48.2489 55.75 45.9375 55.75H14.0625C12.9519 55.75 11.8868 55.3088 11.1015 54.5235C10.3162 53.7382 9.875 52.6731 9.875 51.5625V8.4375C9.875 6.12382 11.751 4.25 14.0625 4.25ZM32.375 30C32.375 29.3701 32.1248 28.766 31.6794 28.3206C31.234 27.8752 30.6299 27.625 30 27.625C29.3701 27.625 28.766 27.8752 28.3206 28.3206C27.8752 28.766 27.625 29.3701 27.625 30V35.125H22.5C21.8701 35.125 21.266 35.3752 20.8206 35.8206C20.3752 36.266 20.125 36.8701 20.125 37.5C20.125 38.1299 20.3752 38.734 20.8206 39.1794C21.266 39.6248 21.8701 39.875 22.5 39.875H27.625V45C27.625 45.6299 27.8752 46.234 28.3206 46.6794C28.766 47.1248 29.3701 47.375 30 47.375C30.6299 47.375 31.234 47.1248 31.6794 46.6794C32.1248 46.234 32.375 45.6299 32.375 45V39.875H37.5C38.1299 39.875 38.734 39.6248 39.1794 39.1794C39.6248 38.734 39.875 38.1299 39.875 37.5C39.875 36.8701 39.6248 36.266 39.1794 35.8206C38.734 35.3752 38.1299 35.125 37.5 35.125H32.375V30Z" fill="#6AADFF" stroke="#6AADFF"/>
<path d="M35.625 13.125C35.6294 9.97137 34.4938 6.92241 32.4275 4.54C36.6107 5.63991 40.4268 7.83119 43.4853 10.8897C46.5438 13.9482 48.7351 17.7643 49.835 21.9475C47.4526 19.8812 44.4036 18.7456 41.25 18.75H36.5625C36.3139 18.75 36.0754 18.6512 35.8996 18.4754C35.7238 18.2996 35.625 18.0611 35.625 17.8125V13.125Z" fill="#6AADFF"/>
</svg>
